<svg width="24" height="16" viewBox="0 0 24 16" fill="none" xmlns="http://www.w3.org/2000/svg">
<g clip-path="url(#clip0_588_359)">
<path d="M1.8 10.6667H10.8V5.33333C10.8 4.24912 11.7413 3.36842 12.9 3.36842H19.5C21.9863 3.36842 24 5.25263 24 7.57895V15.1579C24 15.6246 23.5988 16 23.1 16C22.6013 16 22.2 15.6246 22.2 15.1579V12.3509H1.8V14.8772C1.8 15.3439 1.39688 15.7193 0.9 15.7193C0.403125 15.7193 0 15.3439 0 14.8772V0.842105C0 0.377193 0.403125 0 0.9 0C1.39688 0 1.8 0.377193 1.8 0.842105V10.6667ZM19.5 5.05263H12.9C12.735 5.05263 12.6 5.17895 12.6 5.33333V10.6667H22.2V7.57895C22.2 6.18246 20.9925 5.05263 19.5 5.05263ZM9.6 6.45614C9.6 8.1614 8.1225 9.54386 6.3 9.54386C4.4775 9.54386 3 8.1614 3 6.45614C3 4.75088 4.4775 3.36842 6.3 3.36842C8.1225 3.36842 9.6 4.75088 9.6 6.45614ZM6.3 5.05263C5.47125 5.05263 4.8 5.6807 4.8 6.45614C4.8 7.23158 5.47125 7.85965 6.3 7.85965C7.12875 7.85965 7.8 7.23158 7.8 6.45614C7.8 5.6807 7.12875 5.05263 6.3 5.05263Z" fill="#3D3D3D"/>
</g>
<defs>
<clipPath id="clip0_588_359">
<rect width="24" height="16" fill="white"/>
</clipPath>
</defs>
</svg>
