<svg width="18" height="18" viewBox="0 0 18 18" fill="none" xmlns="http://www.w3.org/2000/svg">
<path d="M5.40055 17.0726C5.99873 16.4744 6.32818 15.6802 6.32815 14.8362C6.32815 14.204 7.35548 12.9313 8.40605 12.4961C8.70991 12.3703 9.12415 12.2723 9.37214 12.5203C9.63251 12.7806 9.65941 12.8076 9.66032 12.8085C9.6613 12.8095 9.66232 12.8105 9.66334 12.8115C10.0605 13.2087 10.5902 13.4275 11.155 13.4275C11.7196 13.4274 12.2493 13.2086 12.6465 12.8115L17.8456 7.61238C17.9445 7.51349 18 7.37937 18 7.23952C18 7.09967 17.9445 6.96551 17.8456 6.86665L11.1336 0.154703C10.9277 -0.0512421 10.5938 -0.0512421 10.3878 0.154703L5.18874 5.35377C4.79154 5.75097 4.57276 6.28067 4.57276 6.84538C4.57276 7.41002 4.79151 7.93972 5.18923 8.33748C5.1907 8.33896 5.21145 8.35963 5.47997 8.62812C5.5853 8.73348 5.63441 8.86275 5.63441 9.03494C5.63441 10.0695 3.99321 11.6721 3.16409 11.6721C1.4195 11.6721 7.03124e-05 13.0915 0 14.8361V14.8362C3.51562e-05 15.6803 0.329484 16.4745 0.927666 17.0726C1.52585 17.6708 2.3201 18.0002 3.16409 18.0002C4.00809 18.0002 4.8024 17.6708 5.40055 17.0726ZM10.7607 1.27337L16.7269 7.23955L14.4895 9.47693L8.52337 3.51064L10.7607 1.27337ZM1.67343 16.3268C1.27445 15.9279 1.05472 15.3985 1.05469 14.8362C1.05476 13.6731 2.00102 12.7268 3.16409 12.7268C3.84978 12.7268 4.71135 12.2602 5.46886 11.4785C5.83575 11.0999 6.6891 10.1039 6.6891 9.03494C6.6891 8.58403 6.52885 8.18546 6.2257 7.88231C5.95876 7.61541 5.93552 7.5922 5.93447 7.59115C5.7365 7.39315 5.62748 7.12832 5.62748 6.84538C5.62748 6.56241 5.73654 6.29754 5.9345 6.09954L7.77764 4.25641L13.7438 10.2227L11.9007 12.0657C11.7027 12.2637 11.4379 12.3727 11.1549 12.3728C10.8719 12.3728 10.6071 12.2637 10.4091 12.0658C10.3982 12.0548 10.3478 12.0043 10.1179 11.7745C9.60312 11.2597 8.85183 11.1699 8.00246 11.5218C6.74042 12.0445 5.27346 13.6062 5.27346 14.8361C5.27346 15.3985 5.05377 15.9278 4.65478 16.3268C4.2558 16.7258 3.72641 16.9455 3.16409 16.9455C2.6018 16.9455 2.07239 16.7258 1.67343 16.3268Z" fill="black"/>
<path d="M3.16406 15.3633C3.45531 15.3633 3.69141 15.1272 3.69141 14.8359C3.69141 14.5447 3.45531 14.3086 3.16406 14.3086C2.87282 14.3086 2.63672 14.5447 2.63672 14.8359C2.63672 15.1272 2.87282 15.3633 3.16406 15.3633Z" fill="black"/>
</svg>
