<svg width="18" height="24" viewBox="0 0 18 24" fill="none" xmlns="http://www.w3.org/2000/svg">
<g clip-path="url(#clip0_575_175)">
<path d="M3 5.625C3 5.00156 3.50391 4.5 4.125 4.5H6.375C6.99844 4.5 7.5 5.00156 7.5 5.625V7.875C7.5 8.49844 6.99844 9 6.375 9H4.125C3.50391 9 3 8.49844 3 7.875V5.625ZM4.5 6V7.5H6V6H4.5ZM13.875 4.5C14.4984 4.5 15 5.00156 15 5.625V7.875C15 8.49844 14.4984 9 13.875 9H11.625C11.0016 9 10.5 8.49844 10.5 7.875V5.625C10.5 5.00156 11.0016 4.5 11.625 4.5H13.875ZM13.5 7.5V6H12V7.5H13.5ZM3 11.625C3 11.0016 3.50391 10.5 4.125 10.5H6.375C6.99844 10.5 7.5 11.0016 7.5 11.625V13.875C7.5 14.4984 6.99844 15 6.375 15H4.125C3.50391 15 3 14.4984 3 13.875V11.625ZM4.5 12V13.5H6V12H4.5ZM13.875 10.5C14.4984 10.5 15 11.0016 15 11.625V13.875C15 14.4984 14.4984 15 13.875 15H11.625C11.0016 15 10.5 14.4984 10.5 13.875V11.625C10.5 11.0016 11.0016 10.5 11.625 10.5H13.875ZM13.5 13.5V12H12V13.5H13.5ZM3 24C1.34297 24 0 22.6547 0 21V3C0 1.34297 1.34297 0 3 0H15C16.6547 0 18 1.34297 18 3V21C18 22.6547 16.6547 24 15 24H3ZM1.5 3V21C1.5 21.8297 2.17172 22.5 3 22.5H6V19.5C6 17.8453 7.34531 16.5 9 16.5C10.6547 16.5 12 17.8453 12 19.5V22.5H15C15.8297 22.5 16.5 21.8297 16.5 21V3C16.5 2.17172 15.8297 1.5 15 1.5H3C2.17172 1.5 1.5 2.17172 1.5 3ZM10.5 19.5C10.5 18.6703 9.82969 18 9 18C8.17031 18 7.5 18.6703 7.5 19.5V22.5H10.5V19.5Z" fill="#3D3D3D"/>
</g>
<defs>
<clipPath id="clip0_575_175">
<rect width="18" height="24" fill="white"/>
</clipPath>
</defs>
</svg>
