<svg width="16" height="20" viewBox="0 0 16 20" fill="none" xmlns="http://www.w3.org/2000/svg">
<g clip-path="url(#clip0_584_307)">
<path d="M15.9142 6.90994L13.5414 3.99485L13.7486 3.55599L15.0536 2.90807C15.3381 2.7705 15.338 2.34223 15.0536 2.20475L13.7486 1.55687L13.1168 0.218752C12.9827 -0.072976 12.565 -0.0728588 12.4309 0.218752L11.7991 1.55687L10.4941 2.20475C10.3575 2.27249 10.2697 2.42088 10.2806 2.57688H3.79376C3.68079 2.57688 3.57365 2.62825 3.50126 2.71721L0.0884995 6.90994C-0.0271007 7.052 -0.0297296 7.25769 0.0822509 7.40276L2.45076 10.4712L2.13741 11.1347L0.815058 11.7913C0.530592 11.9288 0.530668 12.3571 0.815058 12.4946L2.13737 13.1511L2.77763 14.507C2.91175 14.7987 3.32946 14.7986 3.4635 14.5069L4.10372 13.1511L4.40423 13.0019L7.70256 17.2749C7.84583 17.4704 8.15685 17.4704 8.30011 17.2749L15.9204 7.40272C16.0324 7.25769 16.0298 7.052 15.9142 6.90994ZM9.28244 12.5819C9.08089 12.5198 8.86847 12.6372 8.808 12.8439L8.00132 15.6012L5.64611 7.55095H10.3566L9.79358 9.47533C9.73311 9.68196 9.84749 9.89977 10.049 9.96178C10.2451 10.0239 10.4636 9.90833 10.5235 9.69982L11.1522 7.55095H14.8342L8.90482 15.2325L9.53795 13.0684C9.59838 12.8618 9.484 12.6439 9.28244 12.5819ZM9.27867 3.3583L10.3311 6.76961H5.67156L6.724 3.3583H9.27867ZM14.8074 6.76961H11.1304L10.0779 3.3583H11.4009L11.799 3.55599L12.4309 4.8941C12.565 5.18583 12.9827 5.18571 13.1167 4.8941L13.1769 4.76662L14.8074 6.76961ZM12.2503 2.201C12.3275 2.16267 12.3898 2.09875 12.4272 2.01956L12.7738 1.28549L13.1205 2.01956C13.1578 2.09871 13.2202 2.16263 13.2974 2.201L14.0133 2.55641L13.2974 2.91186C13.2202 2.95018 13.1578 3.0141 13.1205 3.09325L12.7738 3.82732L12.4272 3.09325C12.3898 3.0141 12.3275 2.95018 12.2503 2.91182L11.5344 2.55641L12.2503 2.201ZM3.97204 3.3583H5.92474L4.8723 6.76961H1.19531L3.97204 3.3583ZM3.65248 12.507C3.57529 12.5453 3.51295 12.6092 3.47558 12.6884L3.12058 13.4402L2.76555 12.6884C2.72818 12.6092 2.66584 12.5453 2.58865 12.507L1.85542 12.143L2.58869 11.779C2.66588 11.7406 2.72821 11.6767 2.76559 11.5975L3.12058 10.8457L3.47561 11.5976C3.51299 11.6767 3.57533 11.7406 3.65252 11.779L4.38575 12.143L3.65248 12.507ZM5.42607 11.7913L4.10376 11.1348L3.4635 9.77889C3.34919 9.52514 2.99599 9.48267 2.8277 9.70048L1.16853 7.55099H4.85055L7.09789 15.2325L5.10682 12.6531L5.42607 12.4946C5.71054 12.357 5.71042 11.9287 5.42607 11.7913Z" fill="#3D3D3D"/>
<path d="M14.8087 17.0656L13.4864 16.4091L12.8461 15.0532C12.712 14.7615 12.2943 14.7616 12.1603 15.0532L11.52 16.4091L10.1977 17.0656C9.91323 17.2032 9.91331 17.6314 10.1977 17.7689L11.52 18.4254L12.1603 19.7813C12.2944 20.073 12.7121 20.0729 12.8461 19.7813L13.4864 18.4254L14.8087 17.7689C15.0932 17.6314 15.0931 17.2031 14.8087 17.0656ZM13.0351 17.7813C12.9579 17.8196 12.8956 17.8835 12.8582 17.9627L12.5032 18.7145L12.1482 17.9627C12.1108 17.8836 12.0485 17.8197 11.9713 17.7813L11.2381 17.4173L11.9713 17.0533C12.0485 17.015 12.1108 16.951 12.1482 16.8719L12.5032 16.12L12.8583 16.8719C12.8956 16.951 12.958 17.015 13.0352 17.0533L13.7684 17.4173L13.0351 17.7813Z" fill="#3D3D3D"/>
<path d="M10.0473 11.2718C10.0473 11.0561 9.87672 10.8811 9.66629 10.8811H9.66602C9.45558 10.8811 9.28516 11.0561 9.28516 11.2718C9.30527 11.79 10.0273 11.7899 10.0473 11.2718Z" fill="#3D3D3D"/>
</g>
<defs>
<clipPath id="clip0_584_307">
<rect width="16" height="20" fill="white"/>
</clipPath>
</defs>
</svg>
