<svg width="16" height="16" viewBox="0 0 16 16" fill="none" xmlns="http://www.w3.org/2000/svg">
<g clip-path="url(#clip0_588_364)">
<path d="M15.8537 13.647L14.3537 12.147C14.0384 11.8317 13.5004 12.0563 13.5004 12.5003V13.3337H2.66704V2.50032H3.50038C3.94638 2.50032 4.16838 1.96032 3.85371 1.64699L2.35371 0.146988C2.15838 -0.048345 1.84171 -0.048345 1.64638 0.146988L0.147042 1.64699C-0.166958 1.96032 0.0550415 2.50032 0.500375 2.50032H1.33371V13.3337H0.667042C0.298375 13.3337 0.000374849 13.6323 0.000374849 14.0003C0.000374849 14.3683 0.298375 14.667 0.667042 14.667H1.33371V15.3337C1.33371 15.7017 1.63171 16.0003 2.00038 16.0003C2.36904 16.0003 2.66704 15.7017 2.66704 15.3337V14.667H13.5004V15.5003C13.5004 15.9463 14.041 16.1663 14.3537 15.8537L15.8537 14.3537C16.049 14.1583 16.049 13.8423 15.8537 13.647Z" fill="#3D3D3D"/>
<path d="M8.66667 2.66663L13.3333 4.66663L8.66667 6.66663L4 4.66663L8.66667 2.66663Z" fill="#3D3D3D"/>
<path d="M8 7.83143L4 6.11743V10.0001C4 10.1381 4.08467 10.2621 4.21333 10.3114L8 11.7674V7.83143Z" fill="#3D3D3D"/>
<path d="M9.33203 7.83119V11.7672L13.1187 10.3105C13.2474 10.2619 13.332 10.1379 13.332 9.99985V6.11719L9.33203 7.83119Z" fill="#3D3D3D"/>
</g>
<defs>
<clipPath id="clip0_588_364">
<rect width="16" height="16" fill="white"/>
</clipPath>
</defs>
</svg>
