<svg width="18" height="18" viewBox="0 0 18 18" fill="none" xmlns="http://www.w3.org/2000/svg">
<path d="M9.35259 5.11502C11.036 5.3812 11.5108 6.55384 11.5108 7.19412C11.5108 7.38492 11.435 7.56791 11.3001 7.70282C11.1652 7.83774 10.9822 7.91353 10.7914 7.91353C10.6006 7.91353 10.4176 7.83774 10.2827 7.70282C10.1478 7.56791 10.072 7.38492 10.072 7.19412C10.072 7.06463 9.94251 6.47471 8.63318 6.47471C7.32385 6.47471 7.19435 7.06463 7.19435 7.19412C7.19435 7.32362 7.30946 7.91353 8.63318 7.91353C10.9065 7.91353 11.5108 9.35236 11.5108 10.0718C11.5108 10.7912 11.036 11.9063 9.35259 12.1725V12.9494C9.35259 13.1402 9.2768 13.3232 9.14188 13.4581C9.00696 13.593 8.82398 13.6688 8.63318 13.6688C8.44238 13.6688 8.25939 13.593 8.12448 13.4581C7.98956 13.3232 7.91377 13.1402 7.91377 12.9494V12.1725C7.57502 12.1378 7.24657 12.036 6.94763 11.873C6.6487 11.7099 6.38528 11.4889 6.17279 11.2228C5.91764 10.8917 5.77182 10.4895 5.75553 10.0718C5.75553 9.88097 5.83133 9.69798 5.96624 9.56307C6.10116 9.42815 6.28414 9.35236 6.47494 9.35236C6.66574 9.35236 6.84873 9.42815 6.98364 9.56307C7.11856 9.69798 7.19435 9.88097 7.19435 10.0718C7.19435 10.1725 7.30946 10.7912 8.63318 10.7912C10.072 10.7912 10.072 10.0718 10.072 10.0718C10.072 10.0718 9.9569 9.35236 8.63318 9.35236C6.35984 9.35236 5.75553 7.91353 5.75553 7.19412C5.75553 6.47471 6.23034 5.3812 7.91377 5.11502V4.31647C7.91377 4.12567 7.98956 3.94269 8.12448 3.80777C8.25939 3.67286 8.44238 3.59706 8.63318 3.59706C8.82398 3.59706 9.00696 3.67286 9.14188 3.80777C9.2768 3.94269 9.35259 4.12567 9.35259 4.31647V5.11502ZM12.2302 5.03588C12.3249 5.03643 12.4188 5.01828 12.5064 4.98248C12.5941 4.94668 12.6738 4.89393 12.741 4.82726L15.1079 2.4532V3.59706C15.1079 3.78786 15.1837 3.97085 15.3186 4.10576C15.4535 4.24068 15.6365 4.31647 15.8273 4.31647C16.0181 4.31647 16.2011 4.24068 16.336 4.10576C16.4709 3.97085 16.5467 3.78786 16.5467 3.59706V0.719412C16.5456 0.625401 16.526 0.532525 16.4892 0.446035C16.4162 0.270248 16.2765 0.130555 16.1007 0.0575529C16.0142 0.0206895 15.9213 0.00113666 15.8273 0H12.9497C12.7589 0 12.5759 0.0757951 12.441 0.210711C12.306 0.345627 12.2302 0.528612 12.2302 0.719412C12.2302 0.910212 12.306 1.0932 12.441 1.22811C12.5759 1.36303 12.7589 1.43882 12.9497 1.43882H14.0935L11.7195 3.80569C11.652 3.87257 11.5985 3.95214 11.562 4.0398C11.5255 4.12747 11.5067 4.2215 11.5067 4.31647C11.5067 4.41144 11.5255 4.50547 11.562 4.59314C11.5985 4.68081 11.652 4.76038 11.7195 4.82726C11.7867 4.89393 11.8664 4.94668 11.9541 4.98248C12.0417 5.01828 12.1356 5.03643 12.2302 5.03588ZM17.1222 7.06463C17.0879 6.87383 16.9792 6.70448 16.82 6.59385C16.6608 6.48322 16.4641 6.44036 16.2733 6.47471C16.0825 6.50905 15.9132 6.61779 15.8026 6.77699C15.6919 6.93619 15.6491 7.13282 15.6834 7.32362C15.9528 8.77889 15.7667 10.2818 15.1507 11.6275C14.5346 12.9732 13.5185 14.0961 12.2409 14.8432C10.9633 15.5903 9.48643 15.9251 8.01156 15.8021C6.53669 15.6791 5.13564 15.1043 3.99944 14.1559C2.86324 13.2075 2.04719 11.9318 1.66254 10.5027C1.27789 9.07352 1.34337 7.56053 1.85005 6.16998C2.35673 4.77942 3.27995 3.57897 4.49384 2.7323C5.70772 1.88563 7.1532 1.43394 8.63318 1.43882C8.85126 1.42788 9.06976 1.42788 9.28784 1.43882C9.47322 1.4573 9.65854 1.40314 9.80479 1.28774C9.95105 1.17235 10.0468 1.00472 10.072 0.82013C10.0809 0.725582 10.071 0.630209 10.0428 0.539512C10.0147 0.448814 9.96887 0.364586 9.90801 0.291687C9.84715 0.218788 9.77245 0.15866 9.68824 0.114771C9.60402 0.0708815 9.51195 0.0441 9.41734 0.0359707C9.15835 0.0359707 8.89936 0.0359707 8.63318 0.0359707C6.85852 0.0359231 5.12696 0.582802 3.67426 1.60215C2.22156 2.6215 1.1183 4.06379 0.514693 5.73264C-0.0889121 7.4015 -0.163533 9.21583 0.30099 10.9286C0.765512 12.6414 1.74661 14.1694 3.1107 15.3046C4.47479 16.4398 6.15559 17.127 7.92426 17.2727C9.69293 17.4184 11.4635 17.0155 12.995 16.1188C14.5264 15.2221 15.7443 13.8752 16.4829 12.2615C17.2214 10.6478 17.4446 8.84573 17.1222 7.1006V7.06463Z" fill="#3D3D3D"/>
</svg>
