<svg width="18" height="19" viewBox="0 0 18 19" fill="none" xmlns="http://www.w3.org/2000/svg">
<g clip-path="url(#clip0_586_333)">
<path d="M11.0353 7.82799L8.33078 10.3825L7.03281 9.04713C6.88892 8.89898 6.65198 8.89561 6.50399 9.03951C6.35584 9.18355 6.35247 9.42034 6.49637 9.56848L8.0531 11.1665C8.19773 11.312 8.43144 11.317 8.58208 11.1777L11.5568 8.37191C11.629 8.30378 11.6712 8.20971 11.674 8.1105C11.6768 8.0113 11.64 7.91503 11.5717 7.84294C11.427 7.69245 11.1883 7.68586 11.0353 7.82799Z" fill="black"/>
<path d="M9.02997 3.89673C5.93907 3.89673 3.42578 6.41001 3.42578 9.50092C3.42578 12.592 5.93907 15.1053 9.02997 15.1053C12.121 15.1053 14.6343 12.592 14.6343 9.50092C14.6343 6.41001 12.121 3.89673 9.02997 3.89673ZM9.02997 14.355C6.3517 14.355 4.17602 12.1755 4.17602 9.50092C4.17602 6.82631 6.3517 4.64696 9.02997 4.64696C11.7109 4.64696 13.8841 6.82015 13.8841 9.50092C13.8841 12.1817 11.7109 14.355 9.02997 14.355Z" fill="black"/>
<path d="M16.7409 7.4378L16.8647 5.21333C16.8733 5.06401 16.7921 4.92378 16.6584 4.85697L14.6777 3.85543L13.6762 1.87478C13.608 1.74217 13.4687 1.66143 13.3198 1.66847L11.0915 1.78862L9.2347 0.561872C9.10956 0.479376 8.94735 0.479376 8.82207 0.561872L6.96524 1.78862L4.74091 1.66481C4.59145 1.65601 4.45137 1.73719 4.38455 1.87112L3.38287 3.85177L1.40237 4.8533C1.26961 4.92129 1.18902 5.06064 1.19606 5.20966L1.31973 7.43414L0.0931224 9.29097C0.0106259 9.41611 0.0106259 9.57831 0.0931224 9.7036L1.31606 11.5641L1.19225 13.7886C1.1836 13.9379 1.26463 14.0781 1.39856 14.1449L3.37921 15.1465L4.38074 17.1271C4.44873 17.2599 4.58808 17.3405 4.7371 17.3334L6.96158 17.2096L8.81841 18.4362C8.94281 18.5213 9.10663 18.5213 9.23104 18.4362L11.0879 17.2096L13.3123 17.3334C13.4617 17.3421 13.6017 17.2609 13.6687 17.1271L14.6702 15.1465L16.6509 14.1449C16.7835 14.0768 16.8642 13.9376 16.8572 13.7886L16.7334 11.5641L17.96 9.70726C18.0425 9.58212 18.0425 9.41977 17.96 9.29463L16.7409 7.4378ZM16.0431 11.2565C15.9974 11.3236 15.9761 11.4044 15.9831 11.4854L16.0993 13.5897L14.2276 14.535C14.1562 14.5707 14.0983 14.6288 14.0626 14.7001L13.1172 16.5719L11.0128 16.4557C10.9323 16.4528 10.8527 16.4736 10.784 16.5156L9.02839 17.6748L7.27295 16.5156C7.212 16.4745 7.1402 16.4522 7.06664 16.4519H7.04788L4.94342 16.5682L3.99815 14.6963C3.9624 14.625 3.90452 14.5671 3.83301 14.5313L1.95743 13.5897L2.07377 11.4854C2.0767 11.4048 2.05575 11.3252 2.01369 11.2565L0.85464 9.50095L2.01369 7.74537C2.05956 7.6784 2.0808 7.59752 2.07377 7.51663L1.95743 5.41217L3.82935 4.4669C3.90071 4.43115 3.95859 4.37327 3.99434 4.30191L4.93961 2.42999L7.04407 2.54633C7.12452 2.54911 7.20409 2.52831 7.27295 2.48625L9.02839 1.3272L10.784 2.48625C10.8511 2.53212 10.932 2.55336 11.0128 2.54633L13.1172 2.42999L14.0626 4.30191C14.0983 4.37327 14.1562 4.43115 14.2276 4.4669L16.0993 5.41217L15.9831 7.51663C15.9802 7.59708 16.0012 7.67665 16.0431 7.74537L17.2023 9.50095L16.0431 11.2565Z" fill="black"/>
</g>
<defs>
<clipPath id="clip0_586_333">
<rect width="18" height="18" fill="white" transform="translate(0 0.5)"/>
</clipPath>
</defs>
</svg>
